<?xml version="1.0" standalone="no"?>
<!DOCTYPE svg PUBLIC "-//W3C//DTD SVG 20010904//EN"
 "http://www.w3.org/TR/2001/REC-SVG-20010904/DTD/svg10.dtd">
<svg version="1.0" xmlns="http://www.w3.org/2000/svg"
 width="1563.000000pt" height="1563.000000pt" viewBox="0 0 1563.000000 1563.000000"
 preserveAspectRatio="xMidYMid meet">

<g transform="translate(0.000000,1563.000000) scale(0.100000,-0.100000)"
fill="#000000" stroke="none">
<path d="M2600 9020 l-265 -116 -3 -72 c-2 -47 1 -72 8 -72 37 0 286 -33 292
-38 12 -12 21 -668 13 -993 l-7 -316 -92 -16 c-50 -9 -115 -21 -144 -27 l-52
-12 0 -69 0 -69 455 0 455 0 0 69 0 70 -57 11 c-32 7 -94 19 -138 28 l-80 17
0 605 0 604 75 58 c156 122 331 186 476 175 125 -9 213 -63 252 -156 39 -90
43 -171 40 -741 l-3 -545 -135 -27 c-74 -14 -138 -27 -142 -27 -5 -1 -8 -32
-8 -71 l0 -70 450 0 450 0 0 69 c0 46 -4 70 -12 73 -7 3 -68 16 -135 29 l-123
23 -1 65 c0 37 -4 318 -8 626 -8 559 -8 560 -34 658 -47 176 -115 269 -240
327 -242 113 -578 19 -859 -239 l-66 -61 -6 37 c-3 21 -10 90 -17 153 -6 63
-13 118 -16 123 -2 4 -16 13 -31 20 -25 13 -44 6 -292 -103z"/>
<path d="M5528 9130 c-249 -31 -477 -171 -614 -376 -115 -174 -163 -327 -171
-554 -6 -168 6 -285 44 -404 98 -312 315 -523 620 -603 139 -36 317 -36 455 0
246 65 445 224 557 447 87 172 106 264 106 510 -1 169 -4 206 -23 276 -114
422 -419 684 -822 707 -47 3 -115 2 -152 -3z m221 -185 c168 -40 299 -178 360
-380 64 -214 69 -573 11 -801 -41 -158 -134 -300 -237 -361 -155 -91 -370 -84
-519 16 -187 125 -283 446 -254 851 19 272 78 437 196 556 114 113 278 157
443 119z"/>
<path d="M9547 9130 c-205 -24 -361 -94 -484 -217 -60 -60 -97 -120 -129 -208
-27 -75 -21 -115 27 -170 83 -94 255 -64 315 55 12 24 42 111 65 193 38 132
45 150 68 159 37 15 277 15 327 0 142 -42 199 -157 211 -428 l6 -132 -44 -12
c-489 -131 -755 -248 -910 -400 -81 -79 -113 -142 -130 -252 -23 -146 23 -298
121 -402 94 -99 224 -149 395 -150 176 -1 290 50 469 210 l102 92 18 -52 c37
-102 101 -170 200 -209 76 -31 232 -30 301 1 59 27 117 80 152 140 l26 43 -38
39 -38 39 -36 -28 c-104 -81 -187 -76 -232 15 l-24 49 -6 575 c-5 546 -7 579
-27 658 -64 246 -202 362 -467 392 -100 11 -139 11 -238 0z m401 -1202 l-3
-302 -100 -69 c-140 -97 -211 -129 -300 -135 -136 -9 -240 43 -299 148 -28 49
-31 64 -31 140 0 51 6 99 14 120 59 143 197 234 519 341 97 32 183 58 190 59
10 0 12 -64 10 -302z"/>
<path d="M10860 9077 c0 -33 1 -34 58 -46 98 -22 138 -44 164 -93 l23 -43 0
-755 c0 -742 0 -756 -21 -795 -24 -47 -79 -79 -166 -96 -57 -11 -58 -12 -58
-45 l0 -34 420 0 420 0 0 34 c0 34 0 34 -61 45 -91 16 -141 43 -170 94 -24 42
-24 44 -27 360 l-3 317 46 0 c64 0 179 -27 251 -60 222 -100 362 -255 657
-725 l75 -120 -214 -317 c-118 -175 -217 -325 -220 -333 -5 -12 6 -15 65 -15
l70 0 52 78 c29 42 113 166 187 275 l134 198 66 -93 c80 -112 227 -267 302
-318 120 -81 255 -130 362 -130 l58 0 0 34 c0 32 -1 33 -49 39 -63 8 -102 28
-164 86 -93 86 -140 169 -278 490 l-88 204 215 318 c118 175 214 323 214 328
0 7 -27 11 -68 11 l-68 0 -174 -260 c-96 -143 -178 -260 -181 -260 -3 0 -16
19 -29 43 -181 329 -387 492 -685 542 -38 7 -35 8 73 35 154 39 250 88 333
170 76 75 104 128 126 235 13 64 13 92 4 164 -31 241 -198 382 -531 447 -70
14 -177 17 -602 21 l-518 5 0 -35z m964 -91 c228 -44 346 -193 346 -437 0
-175 -69 -297 -204 -360 -96 -45 -180 -59 -363 -59 l-163 0 0 381 c0 457 -2
447 110 478 54 14 190 13 274 -3z"/>
<path d="M6712 8988 l3 -82 94 -13 c52 -7 99 -14 104 -16 5 -1 168 -383 361
-847 l352 -845 84 0 84 0 318 835 c174 459 323 839 330 843 7 4 54 16 103 25
l90 18 3 82 3 82 -366 0 -366 0 3 -82 3 -82 148 -22 c82 -12 151 -24 153 -26
2 -3 -92 -279 -210 -614 -117 -335 -215 -616 -217 -623 -4 -10 -424 1083 -476
1235 -2 6 54 17 149 28 84 9 161 20 171 22 14 5 17 18 17 85 l0 79 -470 0
-471 0 3 -82z"/>
<path d="M12634 8881 c25 -48 26 -49 83 -55 161 -19 362 -86 514 -172 252
-141 453 -348 582 -601 435 -850 -49 -1856 -993 -2065 -131 -30 -410 -31 -555
-4 -324 61 -626 234 -833 478 -122 145 -215 304 -267 458 l-22 65 -46 3 c-41
3 -47 0 -47 -16 0 -60 104 -286 197 -427 84 -127 280 -325 408 -412 400 -271
907 -342 1360 -192 222 74 427 201 595 368 165 164 267 314 346 508 79 195
114 370 114 566 0 501 -225 951 -625 1250 -103 78 -308 183 -441 227 -92 30
-297 70 -360 70 l-34 0 24 -49z"/>
</g>
</svg>
